<svg xmlns="http://www.w3.org/2000/svg" version="1.1" xmlns:xlink="http://www.w3.org/1999/xlink" xmlns:svgjs="http://svgjs.dev/svgjs" width="1440" height="560" preserveAspectRatio="none" viewBox="0 0 1440 560"><g mask="url(&quot;#SvgjsMask1005&quot;)" fill="none"><rect width="1440" height="560" x="0" y="0" fill="#0e2a47"></rect><path d="M1277.9 371.54 a52.2 52.2 0 1 0 104.4 0 a52.2 52.2 0 1 0 -104.4 0z" stroke="#d3b714"></path><path d="M268.1 150.21a41.21 41.21 0 1 0 28.68 77.27z" fill="#d3b714"></path><path d="M875.98 248.91L926.55 248.91L926.55 271.55L875.98 271.55z" stroke="#037b0b"></path><path d="M1069.63 411.21L1111.48 411.21L1111.48 453.06L1069.63 453.06z" fill="#d3b714"></path><path d="M156.13 215.93 a33.79 33.79 0 1 0 67.58 0 a33.79 33.79 0 1 0 -67.58 0z" fill="#d3b714"></path><path d="M91.56 512.73L137.45 512.73L137.45 558.62L91.56 558.62z" fill="#d3b714"></path><path d="M12.29 197.31L26.01 197.31L26.01 244.8L12.29 244.8z" stroke="#037b0b"></path><path d="M969.64 399.77a36.35 36.35 0 1 0 3.4 72.62z" stroke="#e73635"></path><path d="M1160.13 222.92a1.77 1.77 0 1 0 1-3.39z" fill="#e73635"></path><path d="M484.87 220.92L486.56 220.92L486.56 256.98L484.87 256.98z" fill="#e73635"></path><path d="M564.81 375.37L611.93 375.37L611.93 381.08L564.81 381.08z" fill="#037b0b"></path><path d="M731.15 136.06 a10.61 10.61 0 1 0 21.22 0 a10.61 10.61 0 1 0 -21.22 0z" fill="#e73635"></path><path d="M364.1 559.82 a15.79 15.79 0 1 0 31.58 0 a15.79 15.79 0 1 0 -31.58 0z" stroke="#e73635"></path><path d="M67.73 379.07 a15.85 15.85 0 1 0 31.7 0 a15.85 15.85 0 1 0 -31.7 0z" stroke="#d3b714"></path><path d="M200.85 69.14L228.2 69.14L228.2 122.81L200.85 122.81z" fill="#037b0b"></path><path d="M965.13 237.84L972.74 237.84L972.74 245.45L965.13 245.45z" fill="#037b0b"></path><path d="M58.41 396.03 a17.49 17.49 0 1 0 34.98 0 a17.49 17.49 0 1 0 -34.98 0z" fill="#037b0b"></path><path d="M483.49-15.41a47.77 47.77 0 1 0 82.42 48.32z" fill="#d3b714"></path><path d="M1045.72 3.25a17.37 17.37 0 1 0 21.74 27.09z" fill="#d3b714"></path><path d="M615.65 51.36 a14.77 14.77 0 1 0 29.54 0 a14.77 14.77 0 1 0 -29.54 0z" fill="#e73635"></path><path d="M718.61 331.78L721.55 331.78L721.55 334.72L718.61 334.72z" fill="#037b0b"></path><path d="M346.81 299.42L378.51 299.42L378.51 339.32L346.81 339.32z" fill="#037b0b"></path><path d="M738.06 153.38a23.34 23.34 0 1 0 35.9-29.84z" stroke="#037b0b"></path><path d="M594.04 350.94a5.35 5.35 0 1 0 8.86 6z" stroke="#e73635"></path><path d="M831.06 53.46a7.76 7.76 0 1 0-15.23-3.02z" fill="#d3b714"></path><path d="M313.35 447.71L367.16 447.71L367.16 501.52L313.35 501.52z" fill="#e73635"></path><path d="M211.41 25.58 a44.43 44.43 0 1 0 88.86 0 a44.43 44.43 0 1 0 -88.86 0z" stroke="#037b0b"></path><path d="M695.17 441.7a14.19 14.19 0 1 0-28.24-2.81z" stroke="#037b0b"></path><path d="M670.71 511.95 a11.57 11.57 0 1 0 23.14 0 a11.57 11.57 0 1 0 -23.14 0z" stroke="#d3b714"></path><path d="M629.43 368.42 a27.77 27.77 0 1 0 55.54 0 a27.77 27.77 0 1 0 -55.54 0z" stroke="#037b0b"></path><path d="M1439.96 42.49a27.93 27.93 0 1 0-55.49-6.39z" fill="#037b0b"></path><path d="M887.85 495.35L908.81 495.35L908.81 516.31L887.85 516.31z" fill="#037b0b"></path><path d="M185.66 283.69 a19.35 19.35 0 1 0 38.7 0 a19.35 19.35 0 1 0 -38.7 0z" stroke="#e73635"></path></g><defs><mask id="SvgjsMask1005"><rect width="1440" height="560" fill="#ffffff"></rect></mask></defs></svg>